<svg xmlns="http://www.w3.org/2000/svg" width="24" height="24" viewBox="0 0 24 24" fill="none" stroke="currentColor" stroke-width="2" stroke-linecap="round" stroke-linejoin="round"><path d="M8.5 14.5A2.5 2.5 0 0 0 11 12c0-1.38-.5-2-1-3-1.072-2.143-.224-4.054 2-6 .5 2.5-2 4.5-2 4.5-.5 1.5-2.5 2.5-2.5 2.5z"/><path d="M14.5 14.5a2.5 2.5 0 0 0 2.5-2.5c0-1.38-.5-2-1-3-1.072-2.143-.224-4.054 2-6 .5 2.5-2 4.5-2 4.5-.5 1.5-2.5 2.5-2.5 2.5z"/><path d="M17 18c-5 0-5-5-5-5s0 5 5 5z"/><path d="M7 18c5 0 5-5 5-5s0 5-5 5z"/></svg>