<svg xmlns="http://www.w3.org/2000/svg" width="24" height="24" viewBox="0 0 24 24" fill="none" stroke="currentColor" stroke-width="2" stroke-linecap="round" stroke-linejoin="round"><path d="M4.5 16.5c-1.5 1.5-3 1.5-4.5 0"/><path d="M13 8c-3.14-3.14-6-1.6-6-1.6s1.54-2.86 1.6-6c.06-3.14 1.6-6 1.6-6s2.86 1.54 6 1.6c3.14.06 6-1.6 6-1.6s-1.54 2.86-1.6 6c-.06 3.14-1.6 6-1.6 6s-2.86-1.54-6-1.6z"/><path d="M12 12.5a2.5 2.5 0 0 0 2.5-2.5c0-1.38-.5-2-1-3-1.072-2.143-.224-4.054 2-6 .5 2.5-2 4.5-2 4.5-.5 1.5-2.5 2.5-2.5 2.5z"/></svg>